<?xml version="1.0" encoding="UTF-8"?>
<svg version="1.1" viewBox="0 0 2048 2048" width="4167" height="4167" xmlns="http://www.w3.org/2000/svg">
<path transform="translate(1133,1160)" d="m0 0h51l8 16 14 30 19 41 28 60 13 28 28 60 16 34 13 28 16 34 13 28 6 13v3h-63l-16-34-13-28-42-90-16-34-13-29-16-34-17-36-3-7-3 4-16 34-13 28-16 35-9 20-13 27-15 33-19 40-13 28-14 30-6 13h-63l1-5 19-40 13-28 14-30 16-34 13-28 16-34 12-26 14-30 18-39 16-34 12-26 9-20z" fill="#1D1D1B"/>
<path transform="translate(295,1319)" d="m0 0h325v58h-267v100h267v58h-325z" fill="#1D1D1B"/>
<path transform="translate(645,1160)" d="m0 0h59v317h225v58h-276l-6-268-2-89z" fill="#1D1D1B"/>
<path transform="translate(1385,1319)" d="m0 0h325v58l-266 1-1 157h-58z" fill="#1D1D1B"/>
<path transform="translate(295,1160)" d="m0 0h325v58l-1 1h-324z" fill="#1D1D1B"/>
<path transform="translate(1385,1160)" d="m0 0h325v58l-1 1h-323l-1-1z" fill="#1D1D1B"/>
<path transform="translate(1202,589)" d="m0 0h27l21 3 15 4-5 9-8 10-13 13-13 9-16 8-15 5-11 2h-25l-17-4-16-8-11-8-6-7 9-8 15-9 15-7 18-6 19-4z" fill="#1D1D1B"/>
<path transform="translate(827,754)" d="m0 0h10l19 3 16 6 14 8 11 10-1 3-20 12-19 9-21 7-19 4-8 1h-39l-25-4-5-2 5-9 12-14 9-9 14-10 16-8 11-4 10-2z" fill="#1D1D1B"/>
<path transform="translate(786,588)" d="m0 0h10l22 2 22 5 20 7 16 8 16 9 6 4-6 7-12 9-16 8-16 4-16 1-17-2-16-5-16-8-12-8-14-12-12-13-5-7v-2l17-4 14-2z" fill="#1D1D1B"/>
<path transform="translate(897,441)" d="m0 0 4 2 10 8 15 15 11 16 8 16 5 17 2 17-1 15-5 19-9 17-8 10-4 3-7-7-9-14-8-17-7-22-4-21-1-9v-35l3-17 4-12z" fill="#1D1D1B"/>
<path transform="translate(1081,808)" d="m0 0 4 5 8 13 10 21 7 21 5 25 1 10v27l-3 24-3 13-7-4-10-8-15-15-10-15-7-14-4-12-2-10-1-10v-10l3-19 6-16 6-11 9-12z" fill="#1D1D1B"/>
<path transform="translate(922,808)" d="m0 0 7 6 7 8 8 14 5 15 2 14v10l-3 19-7 19-7 13-10 14-12 13-7 7-9 7-2-2-4-20-2-20v-18l2-20 6-25 7-19 8-16 9-16z" fill="#1D1D1B"/>
<path transform="translate(1107,441)" d="m0 0 3 3 5 19 2 17v19l-3 25-5 21-8 22-8 15-8 11-3 4-4-1-9-12-7-12-5-14-2-9-1-9v-10l3-19 6-16 9-17 10-13 11-12 11-10z" fill="#1D1D1B"/>
<path transform="translate(1154,755)" d="m0 0h23l17 4 13 5 19 10 16 12 10 9 8 7 7 8-2 2-20 4-19 2h-23l-18-2-25-6-20-8-21-11-10-7 2-4 7-8 13-9 11-5z" fill="#1D1D1B"/>
<path transform="translate(1094,676)" d="m0 0h29l18 3 16 5 12 5 16 10 3 4-8 8-11 7-12 6-17 5-13 2h-29l-17-3-17-5-17-8-12-8-4-4 11-9 19-10 20-6z" fill="#1D1D1B"/>
<path transform="translate(879,676)" d="m0 0h30l18 3 16 5 16 8 11 8 3 4-11 8-17 9-21 7-18 3h-23l-18-3-18-6-16-8-12-9v-3l8-8 14-8 16-6 14-3z" fill="#1D1D1B"/>
<path transform="translate(1e3 734)" d="m0 0 6 5 8 13 5 10 5 15 3 15 1 11v11l-2 19-5 19-5 13-8 16-6 9-4-2-9-14-7-15-6-20-2-12-1-12v-11l2-18 4-16 6-15 8-13z" fill="#1D1D1B"/>
<path transform="translate(1e3 518)" d="m0 0 3 1 9 13 8 16 5 17 3 21v16l-3 21-5 18-9 19-9 13h-3l-8-11-9-19-5-16-3-17v-32l4-20 6-16 9-16z" fill="#1D1D1B"/>
<path transform="translate(741,718)" d="m0 0h28l-2 4-9 11-12 13-9 11-13 14-9 11-7 8-4-2-6-8-3-8-1-11 2-11 6-12 9-10 8-5 13-4z" fill="#1D1D1B"/>
<path transform="translate(1266,851)" d="m0 0h8l-1 12-4 9-6 8-10 7-11 4-4 1h-15l-11-4-9-6-10-9-12-12-1-3 2-1z" fill="#1D1D1B"/>
<path transform="translate(1248,718)" d="m0 0h19l16 4 12 7 7 7 5 9 3 9v16l-4 11-6 10-4-2-9-10-9-11-11-12-9-11-10-11-9-11-1-3z" fill="#1D1D1B"/>
<path transform="translate(1227,514)" d="m0 0h8l16 4 10 7 6 7 4 8 3 11v4h-14l-70-5-10-1 2-4 15-16 10-8 10-5z" fill="#1D1D1B"/>
<path transform="translate(731,851)" d="m0 0h11l79 6 3 2-12 14-10 9-11 7-9 3h-16l-12-4-11-7-8-11-4-13z" fill="#1D1D1B"/>
<path transform="translate(767,514)" d="m0 0h12l13 4 11 7 12 11 9 11v2l-80 6h-11v-11l4-11 9-10 10-6z" fill="#1D1D1B"/>
<path transform="translate(1298,615)" d="m0 0 4 2 6 10 2 7v17l-4 13-6 9-8 7-10 4-9 2-11 1h-25l2-4 9-10 9-11 12-13 9-11 11-12z" fill="#1D1D1B"/>
<path transform="translate(984,940)" d="m0 0 2 3 1 5v22l-4 14-5 10-9 10-8 5-9 3h-16l-12-4-10-7 5-6 11-9 10-9 11-9 15-13 11-9z" fill="#1D1D1B"/>
<path transform="translate(706,615)" d="m0 0 5 5 11 12 9 11 10 11 9 11 10 11 6 7v2l-7 2-8 1h-14l-16-4-10-6-6-5-7-11-3-9v-15l4-13z" fill="#1D1D1B"/>
<path transform="translate(1019,939)" d="m0 0 4 2 11 10 11 9 11 10 11 9 10 9 11 9 2 3-9 8-10 4h-16l-14-5-9-7-7-8-5-12-1-5z" fill="#1D1D1B"/>
<path transform="translate(1054,394)" d="m0 0h15l10 4 9 6 2 4-14 12-11 9-15 13-11 9-15 13-3 1-3-16v-11l3-14 7-14 8-8 14-7z" fill="#1D1D1B"/>
<path transform="translate(935,394)" d="m0 0h16l11 4 9 6 7 8 5 11 3 13v30l-5-2-10-9-11-9-15-13-14-12-13-11-3-2 2-4 9-7z" fill="#1D1D1B"/>
<path transform="translate(847,881)" d="m0 0h1l6 83v12h-7l-11-4-8-6-6-7-5-11-2-7v-17l4-11 7-11z" fill="#1D1D1B"/>
<path transform="translate(1151,431)" d="m0 0h10l10 4 8 7 6 10 4 10 1 4v16l-4 11-7 11-11 12-9 9-2-3-6-79z" fill="#1D1D1B"/>
<path transform="translate(1158,882)" d="m0 0 14 12 11 14 5 10 2 8v15l-3 11-5 9-9 8-11 5-11 2-1-3 7-89z" fill="#1D1D1B"/>
<path transform="translate(846,432)" d="m0 0h8v12l-6 78-5-2-10-8-7-7-7-11-4-13v-15l4-13 7-10 9-7z" fill="#1D1D1B"/>
<path transform="translate(1228,1586)" d="m0 0 9 2 6 4 1-5h10l1 1v38l-2 9-4 6-6 5-7 2h-11l-10-5-3-4 9-7 6 3h8l4-2 2-4v-3l-6 4h-11l-6-4-6-7-2-6v-9l3-8 5-6 6-3zm1 13-5 4-1 2v7l4 5 2 1h6l5-3 2-4-1-8-5-4z" fill="#1D1D1B"/>
<path transform="translate(518,1586)" d="m0 0 9 2 5 3 2-4h10v44l-4 9-6 5-8 3h-11l-9-4-4-5 9-7 6 3h8l5-4v-4l-5 3h-11l-9-6-5-10v-11l5-10 8-6zm1 13-5 4-1 2v7l4 5 2 1h6l5-3 2-4-1-7-5-5z" fill="#1D1D1B"/>
<path transform="translate(764,1586)" d="m0 0 10 2 5 4 1-5h10l1 1v41l-1 1h-11v-5l-8 5h-11l-6-4-6-7-2-7v-8l3-8 5-6 6-3zm1 13-5 4-1 2v7l4 5 2 1 9-1 4-5v-7l-4-5-2-1z" fill="#1D1D1B"/>
<path transform="translate(1398,1586)" d="m0 0 9 2 4 3 2-4h10l1 1v42h-11l-2-5-4 4-3 1h-10l-7-4-6-8-1-3v-13l4-8 7-6zm1 13-4 2-3 7 2 6 5 4h6l6-5 1-5-3-7-4-2z" fill="#1D1D1B"/>
<path transform="translate(1135,1586)" d="m0 0 9 2 4 3 2-4h11v43h-11l-2-4-7 4h-10l-8-5-5-7-1-3v-13l4-8 7-6zm1 13-4 2-2 3v9l6 5h6l6-5 1-6-3-6-4-2z" fill="#1D1D1B"/>
<path transform="translate(1669,1586)" d="m0 0 9 1 8 5 4 5 3 8v7l-1 1h-29l3 4 3 1h7l6-2 8 5-1 4-9 5-4 1h-8l-9-3-7-7-3-8v-9l3-7 6-7 6-3zm0 12-5 3-1 2h16l-1-3-5-2z" fill="#1D1D1B"/>
<path transform="translate(286,1587)" d="m0 0h11l8 4 6 7 2 5v12l-4 8-8 6-6 2h-7l-8-3-7-6-3-6-1-9 3-9 7-8zm1 13-5 6 1 7 4 4 6 1 5-3 2-2v-9l-4-4z" fill="#1D1D1B"/>
<path transform="translate(680,1586)" d="m0 0 10 2 6 7 2 6v29h-12l-1-1-1-26-3-3h-6l-3 4-1 26h-13v-42l1-1h10l2 4 5-4z" fill="#1D1D1B"/>
<path transform="translate(1497,1586)" d="m0 0 10 2 6 7 2 8v27h-13l-1-26-3-4h-6l-3 3-1 26-1 1h-12v-42l1-1h10l2 4 5-4z" fill="#1D1D1B"/>
<path transform="translate(984,1568)" d="m0 0h7l4 1-1 8-2 4-7 1-2 5h9v11h-9v32h-13v-32h-5v-10l5-1 1-8 4-7z" fill="#1D1D1B"/>
<path transform="translate(1583,1586)" d="m0 0 11 2 7 5 1 3-8 6-5-1-6-1-5 3-2 4 1 6 3 3 7 1 6-3 9 6-1 4-9 6-4 1h-7l-10-4-6-7-2-5v-13l3-6 4-5 8-4z" fill="#1D1D1B"/>
<path transform="translate(1043,1587)" d="m0 0h10l2 4 4-3 3-1h8l1 2-2 9-10 4-3 5-1 22-1 1h-12v-42z" fill="#1D1D1B"/>
<path transform="translate(1306,1587)" d="m0 0h10l2 4 4-3 3-1h8l-1 11-10 4-3 4-1 23-1 1h-12v-42z" fill="#1D1D1B"/>
<path transform="translate(842,1570)" d="m0 0h12v60h-12z" fill="#1D1D1B"/>
<path transform="translate(363,1587)" d="m0 0h10l2 4 6-4h9l-1 10-1 2-9 3-3 4-1 6-1 18h-12v-42z" fill="#1D1D1B"/>
<path transform="translate(596,1587)" d="m0 0h11l1 1v42h-13v-42z" fill="#1D1D1B"/>
<path transform="translate(439,1587)" d="m0 0h11l1 1v42h-12l-1-42z" fill="#1D1D1B"/>
<path transform="translate(443,1570)" d="m0 0 6 1 3 4-1 7-3 2h-7l-3-3v-7z" fill="#1D1D1B"/>
<path transform="translate(600,1570)" d="m0 0 5 1 3 3 1 5-4 5h-7l-3-3v-7z" fill="#1D1D1B"/>
</svg>
