<?xml version="1.0" standalone="no"?>
<!DOCTYPE svg PUBLIC "-//W3C//DTD SVG 20010904//EN"
 "http://www.w3.org/TR/2001/REC-SVG-20010904/DTD/svg10.dtd">
<svg version="1.0" xmlns="http://www.w3.org/2000/svg"
 width="4167.000000pt" height="4167.000000pt" viewBox="0 0 4167.000000 4167.000000"
 preserveAspectRatio="xMidYMid meet">

<g transform="translate(0.000000,4167.000000) scale(0.100000,-0.100000)"
fill="#000000" stroke="none">
<path d="M19045 33646 c-84 -16 -175 -51 -251 -97 -64 -39 -177 -144 -172
-159 2 -6 323 -283 713 -615 l710 -604 9 42 c5 23 9 152 9 287 0 209 -3 262
-21 361 -77 417 -294 676 -647 768 -103 27 -258 35 -350 17z"/>
<path d="M21485 33649 c-96 -14 -164 -38 -265 -90 -253 -129 -410 -347 -477
-659 -27 -129 -25 -398 5 -547 12 -62 26 -121 30 -131 6 -16 118 75 711 577
l703 596 -43 38 c-108 94 -245 168 -373 201 -75 20 -215 27 -291 15z"/>
<path d="M23414 32869 c3 -19 35 -441 72 -939 36 -498 69 -913 73 -923 5 -15
35 10 172 145 91 90 194 198 228 241 128 159 210 315 242 462 20 94 16 274 -9
376 -61 248 -216 486 -380 582 -105 62 -166 79 -290 85 l-113 5 5 -34z"/>
<path d="M17195 32865 c-511 -111 -769 -738 -514 -1248 71 -142 167 -264 303
-385 75 -66 237 -182 255 -182 6 0 11 12 11 28 0 15 29 414 65 886 36 473 65
872 65 888 0 28 0 28 -62 27 -35 0 -90 -6 -123 -14z"/>
<path d="M18221 32630 c-38 -99 -85 -288 -106 -425 -83 -562 -3 -1264 211
-1844 56 -152 189 -416 268 -536 73 -109 218 -285 236 -285 14 0 163 183 227
278 79 120 163 291 207 422 244 736 4 1539 -651 2170 -106 102 -298 264 -350
293 -7 5 -22 -20 -42 -73z"/>
<path d="M22430 32613 c-57 -48 -154 -138 -216 -200 -601 -604 -860 -1314
-723 -1986 56 -280 201 -572 402 -814 42 -50 80 -94 86 -97 5 -4 37 26 71 66
255 301 478 810 586 1336 62 303 78 463 78 782 1 300 -5 375 -50 605 -32 164
-104 395 -123 395 -4 0 -54 -39 -111 -87z"/>
<path d="M15577 31194 c-94 -17 -234 -68 -314 -115 -32 -19 -97 -72 -144 -119
-135 -134 -194 -271 -206 -483 l-6 -108 49 6 c27 3 432 32 899 65 468 33 867
64 887 68 l37 7 -72 90 c-98 123 -295 320 -391 390 -246 180 -486 245 -739
199z"/>
<path d="M24860 31184 c-134 -29 -273 -99 -404 -204 -104 -84 -469 -463 -455
-474 2 -1 405 -31 894 -65 490 -34 921 -65 959 -68 l69 -6 -7 54 c-24 195
-112 399 -221 516 -116 126 -263 206 -450 244 -108 22 -290 24 -385 3z"/>
<path d="M20346 31074 c-460 -552 -614 -1400 -401 -2210 57 -217 128 -397 239
-599 52 -95 177 -285 201 -305 27 -23 184 213 301 455 356 732 351 1647 -12
2334 -59 112 -170 279 -232 350 l-39 45 -57 -70z"/>
<path d="M15935 29693 c-239 -11 -517 -50 -750 -105 -71 -17 -132 -32 -134
-34 -6 -5 103 -148 190 -249 359 -417 815 -716 1264 -829 142 -35 206 -45 352
-56 391 -28 766 73 1098 295 102 68 315 246 315 263 0 9 -230 153 -355 224
-523 295 -1050 454 -1625 488 -157 9 -218 10 -355 3z"/>
<path d="M24425 29673 c-610 -51 -1168 -234 -1610 -528 -115 -77 -245 -179
-245 -194 0 -19 201 -200 288 -259 230 -158 481 -249 772 -283 130 -15 410 -6
535 16 286 51 551 153 802 308 278 173 548 444 722 725 l50 81 -53 15 c-307
89 -598 127 -971 124 -137 -1 -268 -3 -290 -5z"/>
<path d="M25820 28464 c-333 -382 -618 -711 -634 -730 l-30 -36 325 5 c426 6
572 29 759 119 69 34 101 58 170 127 71 71 94 102 132 181 133 271 155 544 61
770 -40 99 -149 262 -172 259 -3 0 -278 -313 -611 -695z"/>
<path d="M14304 29065 c-66 -102 -106 -187 -136 -292 -30 -103 -33 -332 -5
-433 44 -165 158 -341 285 -442 94 -74 250 -151 377 -185 94 -25 113 -27 320
-27 192 0 233 3 325 22 58 13 109 27 113 31 9 9 -1199 1411 -1214 1411 -5 0
-34 -38 -65 -85z"/>
<path d="M17970 27914 c-559 -53 -995 -219 -1254 -478 l-80 -80 40 -33 c21
-19 84 -65 139 -102 303 -206 600 -325 980 -392 114 -20 163 -23 395 -24 297
0 389 10 635 72 187 47 328 99 512 190 129 63 355 202 442 271 l24 19 -41 37
c-223 202 -539 361 -883 445 -214 52 -378 72 -634 76 -126 1 -250 1 -275 -1z"/>
<path d="M22317 27910 c-502 -49 -946 -221 -1266 -491 l-73 -62 28 -23 c84
-69 288 -196 429 -265 261 -128 553 -215 860 -255 196 -26 545 -24 733 5 439
67 807 231 1056 472 l91 89 -30 26 c-64 54 -255 175 -365 231 -259 132 -531
215 -845 259 -130 18 -493 26 -618 14z"/>
<path d="M25387 27049 c-108 -12 -207 -31 -207 -40 0 -13 1234 -1433 1245
-1433 17 0 123 165 156 244 92 215 101 420 30 627 -133 387 -526 617 -1041
612 -63 -1 -146 -5 -183 -10z"/>
<path d="M14939 27035 c-242 -38 -398 -114 -540 -261 -116 -122 -206 -280
-245 -429 -24 -94 -25 -294 -1 -385 26 -102 101 -241 167 -312 58 -63 58 -63
78 -43 15 16 1195 1363 1250 1428 14 16 -1 17 -304 16 -213 -1 -348 -5 -405
-14z"/>
<path d="M20363 26708 c-52 -55 -140 -175 -193 -263 -145 -240 -247 -532 -295
-845 -22 -145 -31 -495 -16 -656 38 -400 155 -778 341 -1103 61 -107 182 -283
198 -289 10 -3 135 185 201 306 322 583 428 1296 286 1925 -73 321 -224 639
-420 885 -32 39 -61 72 -64 72 -4 0 -21 -15 -38 -32z"/>
<path d="M16750 26314 c-135 -16 -261 -41 -360 -69 -497 -144 -928 -474 -1275
-978 -37 -54 -65 -100 -63 -102 9 -10 365 -76 518 -97 223 -30 740 -33 945 -4
601 83 1112 275 1634 616 61 40 111 76 111 80 0 15 -143 139 -236 206 -234
167 -491 275 -774 325 -111 20 -411 34 -500 23z"/>
<path d="M23525 26303 c-73 -9 -234 -47 -299 -70 -109 -39 -274 -128 -368
-199 -88 -66 -298 -277 -298 -299 0 -17 186 -137 373 -241 421 -234 862 -378
1352 -440 193 -25 649 -25 857 -1 176 21 384 57 537 93 l112 26 -93 100 c-102
111 -305 298 -443 408 -425 341 -868 552 -1287 614 -96 15 -358 20 -443 9z"/>
<path d="M18708 25128 c-151 -242 -276 -487 -371 -728 -130 -330 -204 -631
-242 -985 -17 -164 -20 -556 -5 -725 19 -204 87 -595 118 -681 6 -16 22 -6
112 68 135 110 374 351 473 474 373 467 562 981 544 1479 -14 390 -140 719
-389 1015 -42 50 -98 112 -125 138 l-50 49 -65 -104z"/>
<path d="M21916 25138 c-334 -417 -491 -897 -456 -1394 20 -269 82 -496 205
-749 183 -375 437 -666 823 -942 48 -34 90 -59 93 -55 7 7 61 286 79 402 42
275 53 736 24 1012 -62 599 -248 1127 -593 1681 -47 75 -89 137 -93 137 -4 0
-41 -42 -82 -92z"/>
<path d="M14875 24299 c12 -117 45 -232 92 -329 40 -80 61 -109 138 -185 122
-122 256 -197 441 -246 114 -31 290 -31 398 0 100 28 236 97 340 174 123 90
504 484 485 501 -2 2 -400 33 -884 70 -484 37 -911 70 -949 73 l-68 6 7 -64z"/>
<path d="M24925 24284 c-473 -34 -877 -63 -898 -63 l-39 -1 54 -62 c101 -117
363 -374 441 -432 98 -73 239 -147 337 -178 65 -20 94 -23 225 -22 132 1 161
4 240 27 50 15 142 52 204 83 102 50 125 67 207 148 79 78 98 104 137 186 51
105 77 213 77 315 l0 65 -62 -1 c-35 -1 -450 -30 -923 -65z"/>
<path d="M17029 23532 c-266 -271 -357 -401 -419 -597 -33 -104 -39 -298 -12
-425 42 -203 115 -343 247 -475 99 -100 192 -156 320 -194 70 -21 206 -44 213
-36 7 6 -131 1919 -138 1928 -4 4 -98 -86 -211 -201z"/>
<path d="M23556 23718 c-9 -28 -149 -1889 -142 -1895 11 -11 192 26 277 57
117 43 213 103 294 185 152 153 225 350 225 607 0 226 -63 405 -214 610 -110
148 -431 466 -440 436z"/>
<path d="M20735 22434 c-12 -226 0 -574 24 -676 65 -283 229 -477 507 -604
129 -58 221 -78 364 -77 143 0 227 22 345 87 68 38 195 149 194 170 0 8 -1227
1073 -1393 1209 l-34 27 -7 -136z"/>
<path d="M19315 21934 c-390 -333 -711 -608 -712 -612 -3 -12 102 -91 181
-136 343 -196 780 -125 1029 167 234 273 331 722 242 1115 -9 39 -20 72 -23
72 -4 -1 -326 -273 -717 -606z"/>
<path d="M6000 17470 l0 -590 3305 0 3305 0 0 590 0 590 -3305 0 -3305 0 0
-590z"/>
<path d="M13130 18038 c-2 -73 163 -7557 166 -7575 l4 -23 2800 0 2800 0 0
595 0 595 -2290 0 -2290 0 0 3215 0 3215 -595 0 -595 0 0 -22z"/>
<path d="M22205 16238 c-466 -1003 -1255 -2694 -1753 -3758 -498 -1064 -915
-1959 -928 -1987 l-24 -53 643 0 644 0 653 1403 c360 771 739 1582 843 1802
104 220 260 558 346 750 208 462 932 2015 940 2015 9 0 751 -1578 926 -1970
81 -179 211 -462 291 -630 79 -168 465 -993 857 -1835 l714 -1530 642 -3 c610
-2 643 -1 638 15 -3 10 -439 945 -969 2078 -530 1133 -1326 2839 -1768 3792
l-805 1732 -521 1 -521 0 -848 -1822z"/>
<path d="M28190 17470 l0 -590 3305 0 3305 0 0 590 0 590 -3305 0 -3305 0 0
-590z"/>
<path d="M6000 12640 l0 -2200 3305 0 3305 0 0 595 0 595 -2715 0 -2715 0 0
1010 0 1010 2715 0 2715 0 0 595 0 595 -3305 0 -3305 0 0 -2200z"/>
<path d="M28190 12640 l0 -2200 590 0 590 0 0 1605 0 1605 2715 0 2715 0 0
595 0 595 -3305 0 -3305 0 0 -2200z"/>
<path d="M19985 9747 c-148 -50 -216 -133 -237 -293 l-12 -84 -53 0 -53 0 0
-110 0 -110 55 0 55 0 0 -320 0 -320 130 0 130 0 0 320 0 320 95 0 95 0 0 110
0 110 -95 0 -95 0 0 33 c0 74 62 122 152 115 l42 -3 28 95 c33 112 34 126 11
135 -35 14 -207 15 -248 2z"/>
<path d="M17120 9120 l0 -610 130 0 130 0 0 610 0 610 -130 0 -130 0 0 -610z"/>
<path d="M8990 9703 c-95 -49 -107 -176 -24 -242 56 -44 136 -36 189 19 38 40
46 120 16 167 -41 65 -118 89 -181 56z"/>
<path d="M12180 9703 c-95 -49 -107 -176 -24 -242 56 -44 136 -36 189 19 38
40 46 120 16 167 -41 65 -118 89 -181 56z"/>
<path d="M10484 9381 c-151 -36 -279 -189 -305 -363 -30 -200 70 -403 238
-484 51 -25 70 -28 153 -29 87 0 100 3 148 30 30 16 65 42 78 58 l24 29 0 -39
c-1 -177 -232 -266 -386 -148 l-34 26 -93 -72 c-50 -40 -94 -74 -97 -77 -11
-9 96 -94 153 -121 246 -115 554 -29 657 184 47 98 50 124 50 573 l0 422 -115
0 c-114 0 -115 0 -115 -24 0 -13 -3 -37 -6 -53 l-6 -30 -44 43 c-74 71 -191
101 -300 75z m246 -275 c128 -84 114 -274 -25 -337 -126 -58 -275 37 -275 175
0 72 67 165 132 185 50 16 126 5 168 -23z"/>
<path d="M13790 9381 c-49 -16 -87 -40 -118 -75 -29 -33 -30 -33 -36 -13 -3
12 -6 34 -6 50 l0 27 -120 0 -120 0 0 -430 0 -430 130 0 129 0 3 264 c3 295 3
292 79 344 64 44 151 16 192 -62 20 -38 22 -57 25 -293 l4 -253 124 0 124 0 0
268 c0 285 -9 361 -50 443 -52 104 -139 159 -259 165 -42 2 -87 0 -101 -5z"/>
<path d="M15494 9381 c-150 -36 -280 -190 -304 -361 -29 -205 70 -406 237
-486 126 -59 275 -39 367 51 l45 43 7 -59 7 -59 118 0 119 0 0 430 0 430 -120
0 c-120 0 -120 0 -120 -24 0 -13 -3 -37 -6 -53 l-6 -30 -44 43 c-74 71 -191
101 -300 75z m246 -275 c128 -84 114 -274 -25 -337 -126 -58 -275 37 -275 175
0 72 67 165 132 185 50 16 126 5 168 -23z"/>
<path d="M23034 9381 c-150 -36 -280 -190 -304 -361 -29 -205 70 -406 237
-486 126 -59 275 -39 367 51 l45 43 7 -59 7 -59 118 0 119 0 0 430 0 430 -120
0 c-120 0 -120 0 -120 -24 0 -13 -3 -37 -6 -53 l-6 -30 -44 43 c-74 71 -191
101 -300 75z m246 -275 c128 -84 114 -274 -25 -337 -126 -58 -275 37 -275 175
0 72 67 165 132 185 50 16 126 5 168 -23z"/>
<path d="M24934 9381 c-151 -36 -279 -189 -305 -363 -30 -200 70 -403 238
-484 51 -25 70 -28 153 -29 87 0 100 3 148 30 30 16 65 42 78 58 l24 29 0 -39
c-1 -177 -232 -266 -386 -148 l-34 26 -93 -72 c-50 -40 -94 -74 -97 -77 -11
-9 96 -94 153 -121 246 -115 554 -29 657 184 47 98 50 124 50 573 l0 422 -115
0 c-114 0 -115 0 -115 -24 0 -13 -3 -37 -6 -53 l-6 -30 -44 43 c-74 71 -191
101 -300 75z m246 -275 c128 -84 114 -274 -25 -337 -126 -58 -275 37 -275 175
0 72 67 165 132 185 50 16 126 5 168 -23z"/>
<path d="M28384 9381 c-150 -36 -280 -190 -304 -361 -29 -205 70 -406 237
-486 126 -59 275 -39 367 51 l45 43 7 -59 7 -59 118 0 119 0 0 430 0 430 -120
0 c-120 0 -120 0 -120 -24 0 -13 -3 -37 -6 -53 l-6 -30 -44 43 c-74 71 -191
101 -300 75z m246 -275 c128 -84 114 -274 -25 -337 -126 -58 -275 37 -275 175
0 72 67 165 132 185 50 16 126 5 168 -23z"/>
<path d="M30410 9381 c-49 -16 -87 -40 -118 -75 -29 -33 -30 -33 -36 -13 -3
12 -6 34 -6 50 l0 27 -120 0 -120 0 0 -430 0 -430 130 0 129 0 3 264 c3 295 3
292 79 344 64 44 151 16 192 -62 20 -38 22 -57 25 -293 l4 -253 124 0 124 0 0
268 c0 285 -9 361 -50 443 -52 104 -139 159 -259 165 -42 2 -87 0 -101 -5z"/>
<path d="M32119 9376 c-116 -34 -232 -131 -283 -239 -106 -226 -6 -502 221
-610 64 -30 75 -32 178 -32 103 0 114 2 177 32 81 38 128 73 169 124 l30 38
-107 71 -106 72 -32 -30 c-106 -103 -289 -36 -312 114 -24 162 169 272 304
174 l39 -28 101 66 c56 37 102 71 102 76 0 23 -107 111 -177 143 -65 32 -85
36 -166 39 -57 2 -110 -2 -138 -10z"/>
<path d="M33886 9380 c-111 -28 -239 -135 -290 -243 -55 -118 -55 -277 1 -396
34 -71 131 -169 203 -204 137 -67 320 -61 461 14 59 32 129 89 129 107 0 5
-43 38 -97 72 -79 52 -99 61 -112 51 -60 -43 -156 -61 -228 -41 -44 13 -123
76 -123 100 0 6 112 11 303 12 l302 3 0 95 c0 69 -5 109 -19 145 -46 120 -145
224 -256 266 -63 24 -211 34 -274 19z m217 -255 c36 -17 75 -60 65 -71 -3 -2
-80 -3 -173 -2 l-167 3 23 29 c51 65 165 83 252 41z"/>
<path d="M5786 9360 c-157 -56 -272 -194 -297 -355 -30 -192 71 -384 246 -471
61 -30 87 -37 157 -41 196 -12 359 82 442 257 29 62 31 71 31 185 0 120 0 122
-38 197 -45 92 -122 167 -216 211 -55 26 -78 31 -165 34 -83 3 -111 0 -160
-17z m232 -257 c20 -10 47 -36 63 -62 58 -91 29 -209 -65 -262 -145 -82 -321
69 -262 225 41 108 155 151 264 99z"/>
<path d="M7742 9361 c-31 -11 -70 -35 -92 -56 l-39 -38 -7 52 -7 51 -118 0
-119 0 0 -430 0 -430 129 0 130 0 3 228 c3 211 5 230 25 268 43 80 104 114
223 126 23 3 26 11 48 111 13 60 21 115 18 123 -8 21 -128 18 -194 -5z"/>
<path d="M21582 9361 c-31 -11 -70 -35 -92 -56 l-39 -38 -7 52 -7 51 -118 0
-119 0 0 -430 0 -430 129 0 130 0 3 228 c3 211 5 230 25 268 43 80 104 114
223 126 23 3 26 11 48 111 13 60 21 115 18 123 -8 21 -128 18 -194 -5z"/>
<path d="M26932 9361 c-31 -11 -70 -35 -92 -56 l-39 -38 -7 52 -7 51 -118 0
-119 0 0 -430 0 -430 129 0 130 0 3 228 c3 211 5 230 25 268 43 80 104 114
223 126 23 3 26 11 48 111 13 60 21 115 18 123 -8 21 -128 18 -194 -5z"/>
<path d="M8920 8940 l0 -430 130 0 130 0 0 430 0 430 -130 0 -130 0 0 -430z"/>
<path d="M12110 8940 l0 -430 130 0 130 0 0 430 0 430 -130 0 -130 0 0 -430z"/>
</g>
</svg>
